<svg width="185" height="112" viewBox="0 0 185 112" fill="none" xmlns="http://www.w3.org/2000/svg">
<path d="M43.6522 29.2002H78.5449V31.9822H46.8507V52.9205H76.6549V55.7025H46.8507V78.6906H78.9084V81.4726H43.6522V29.2002ZM81.6707 29.2002H85.3781L101.807 52.1884L118.599 29.2002L141.439 0L103.915 54.6043L123.251 81.4726H119.398L101.807 57.0203L84.1423 81.4726H80.3622L99.844 54.6043L81.6707 29.2002ZM124.632 31.9822V29.2002H164.395V31.9822H146.077V81.4726H142.878V31.9822H124.632ZM0 29.2002H3.99812L59.1299 111.958L36.3466 81.4726L3.34388 33.1536L3.1985 81.4726H0V29.2002ZM164.073 77.851C163.42 77.851 162.93 77.3431 162.93 76.6868C162.93 76.0304 163.42 75.5225 164.073 75.5225C164.734 75.5225 165.217 76.0304 165.217 76.6868C165.217 77.3431 164.734 77.851 164.073 77.851ZM167.216 74.788H168.928C168.951 75.7178 169.628 76.3429 170.624 76.3429C171.736 76.3429 172.366 75.6709 172.366 74.4129V66.4426H174.109V74.4207C174.109 76.6868 172.802 77.9917 170.639 77.9917C168.609 77.9917 167.216 76.7258 167.216 74.788ZM176.388 74.6864H178.115C178.263 75.7569 179.305 76.4367 180.807 76.4367C182.207 76.4367 183.234 75.71 183.234 74.7098C183.234 73.8503 182.581 73.3345 181.095 72.9829L179.648 72.6313C177.617 72.1546 176.692 71.1701 176.692 69.5135C176.692 67.5053 178.325 66.1691 180.776 66.1691C183.055 66.1691 184.72 67.5053 184.821 69.4041H183.125C182.962 68.3648 182.059 67.7163 180.752 67.7163C179.375 67.7163 178.457 68.3805 178.457 69.3963C178.457 70.2011 179.049 70.6622 180.511 71.006L181.748 71.3107C184.051 71.8499 185 72.7876 185 74.4832C185 76.6399 183.335 77.9917 180.675 77.9917C178.185 77.9917 176.513 76.7024 176.388 74.6864Z" fill="white"/>
</svg>

